<mxfile host="app.diagrams.net" modified="2023-10-23T08:02:09.980Z" agent="Mozilla/5.0 (Windows NT 10.0; Win64; x64) AppleWebKit/537.36 (KHTML, like Gecko) Chrome/118.0.0.0 Safari/537.36" etag="se-AYi_EWqo-_RS50Jcb" version="22.0.6" type="github">
  <diagram id="R2lEEEUBdFMjLlhIrx00" name="Page-1">
    <mxGraphModel dx="1434" dy="1828" grid="1" gridSize="10" guides="1" tooltips="1" connect="1" arrows="1" fold="1" page="1" pageScale="1" pageWidth="850" pageHeight="1100" math="0" shadow="0" extFonts="Permanent Marker^https://fonts.googleapis.com/css?family=Permanent+Marker">
      <root>
        <mxCell id="0" />
        <mxCell id="1" parent="0" />
        <mxCell id="rBS2Hn_itAMRtuBUA19r-79" style="edgeStyle=orthogonalEdgeStyle;rounded=0;orthogonalLoop=1;jettySize=auto;html=1;entryX=0.5;entryY=1;entryDx=0;entryDy=0;" edge="1" parent="1" source="rBS2Hn_itAMRtuBUA19r-1" target="rBS2Hn_itAMRtuBUA19r-11">
          <mxGeometry relative="1" as="geometry" />
        </mxCell>
        <mxCell id="rBS2Hn_itAMRtuBUA19r-80" value="1:1" style="edgeLabel;html=1;align=center;verticalAlign=middle;resizable=0;points=[];" vertex="1" connectable="0" parent="rBS2Hn_itAMRtuBUA19r-79">
          <mxGeometry x="-0.0364" y="1" relative="1" as="geometry">
            <mxPoint x="1" as="offset" />
          </mxGeometry>
        </mxCell>
        <mxCell id="rBS2Hn_itAMRtuBUA19r-1" value="" style="shape=internalStorage;whiteSpace=wrap;html=1;backgroundOutline=1;dx=85;dy=60;" vertex="1" parent="1">
          <mxGeometry x="465" y="-280" width="325" height="210" as="geometry" />
        </mxCell>
        <mxCell id="rBS2Hn_itAMRtuBUA19r-2" value="Id" style="text;html=1;strokeColor=none;fillColor=none;align=center;verticalAlign=middle;whiteSpace=wrap;rounded=0;" vertex="1" parent="1">
          <mxGeometry x="475" y="-260" width="60" height="30" as="geometry" />
        </mxCell>
        <mxCell id="rBS2Hn_itAMRtuBUA19r-3" value="Equipo" style="text;html=1;strokeColor=none;fillColor=none;align=center;verticalAlign=middle;whiteSpace=wrap;rounded=0;" vertex="1" parent="1">
          <mxGeometry x="595" y="-260" width="60" height="30" as="geometry" />
        </mxCell>
        <mxCell id="rBS2Hn_itAMRtuBUA19r-4" value="&amp;nbsp;01" style="text;html=1;strokeColor=none;fillColor=none;align=center;verticalAlign=middle;whiteSpace=wrap;rounded=0;" vertex="1" parent="1">
          <mxGeometry x="475" y="-210" width="60" height="30" as="geometry" />
        </mxCell>
        <mxCell id="rBS2Hn_itAMRtuBUA19r-5" value="FC Barcelona" style="text;html=1;strokeColor=none;fillColor=none;align=center;verticalAlign=middle;whiteSpace=wrap;rounded=0;" vertex="1" parent="1">
          <mxGeometry x="585" y="-210" width="100" height="30" as="geometry" />
        </mxCell>
        <mxCell id="rBS2Hn_itAMRtuBUA19r-6" value="02" style="text;html=1;strokeColor=none;fillColor=none;align=center;verticalAlign=middle;whiteSpace=wrap;rounded=0;" vertex="1" parent="1">
          <mxGeometry x="475" y="-180" width="60" height="30" as="geometry" />
        </mxCell>
        <mxCell id="rBS2Hn_itAMRtuBUA19r-7" value="Barcelona Atletic" style="text;html=1;strokeColor=none;fillColor=none;align=center;verticalAlign=middle;whiteSpace=wrap;rounded=0;" vertex="1" parent="1">
          <mxGeometry x="595" y="-180" width="100" height="30" as="geometry" />
        </mxCell>
        <mxCell id="rBS2Hn_itAMRtuBUA19r-9" value="03" style="text;html=1;strokeColor=none;fillColor=none;align=center;verticalAlign=middle;whiteSpace=wrap;rounded=0;" vertex="1" parent="1">
          <mxGeometry x="475" y="-150" width="60" height="30" as="geometry" />
        </mxCell>
        <mxCell id="rBS2Hn_itAMRtuBUA19r-10" value="Barca Juvenil" style="text;html=1;strokeColor=none;fillColor=none;align=center;verticalAlign=middle;whiteSpace=wrap;rounded=0;" vertex="1" parent="1">
          <mxGeometry x="595" y="-150" width="80" height="30" as="geometry" />
        </mxCell>
        <mxCell id="rBS2Hn_itAMRtuBUA19r-11" value="" style="shape=internalStorage;whiteSpace=wrap;html=1;backgroundOutline=1;dx=80;dy=40;" vertex="1" parent="1">
          <mxGeometry x="465" y="-600" width="325" height="210" as="geometry" />
        </mxCell>
        <mxCell id="rBS2Hn_itAMRtuBUA19r-12" value="Id" style="text;html=1;strokeColor=none;fillColor=none;align=center;verticalAlign=middle;whiteSpace=wrap;rounded=0;" vertex="1" parent="1">
          <mxGeometry x="465" y="-590" width="60" height="30" as="geometry" />
        </mxCell>
        <mxCell id="rBS2Hn_itAMRtuBUA19r-13" value="Categoría" style="text;html=1;strokeColor=none;fillColor=none;align=center;verticalAlign=middle;whiteSpace=wrap;rounded=0;" vertex="1" parent="1">
          <mxGeometry x="595" y="-590" width="60" height="30" as="geometry" />
        </mxCell>
        <mxCell id="rBS2Hn_itAMRtuBUA19r-15" value="01LL" style="text;html=1;strokeColor=none;fillColor=none;align=center;verticalAlign=middle;whiteSpace=wrap;rounded=0;" vertex="1" parent="1">
          <mxGeometry x="475" y="-540" width="60" height="30" as="geometry" />
        </mxCell>
        <mxCell id="rBS2Hn_itAMRtuBUA19r-16" value="03SR" style="text;html=1;strokeColor=none;fillColor=none;align=center;verticalAlign=middle;whiteSpace=wrap;rounded=0;" vertex="1" parent="1">
          <mxGeometry x="475" y="-510" width="60" height="30" as="geometry" />
        </mxCell>
        <mxCell id="rBS2Hn_itAMRtuBUA19r-17" value="04RC" style="text;html=1;strokeColor=none;fillColor=none;align=center;verticalAlign=middle;whiteSpace=wrap;rounded=0;" vertex="1" parent="1">
          <mxGeometry x="475" y="-480" width="60" height="30" as="geometry" />
        </mxCell>
        <mxCell id="rBS2Hn_itAMRtuBUA19r-18" value="La liga" style="text;html=1;strokeColor=none;fillColor=none;align=center;verticalAlign=middle;whiteSpace=wrap;rounded=0;" vertex="1" parent="1">
          <mxGeometry x="595" y="-540" width="60" height="30" as="geometry" />
        </mxCell>
        <mxCell id="rBS2Hn_itAMRtuBUA19r-19" value="Segunda REFF" style="text;html=1;strokeColor=none;fillColor=none;align=center;verticalAlign=middle;whiteSpace=wrap;rounded=0;" vertex="1" parent="1">
          <mxGeometry x="605" y="-510" width="90" height="30" as="geometry" />
        </mxCell>
        <mxCell id="rBS2Hn_itAMRtuBUA19r-20" value="Regional de Cataluña" style="text;html=1;strokeColor=none;fillColor=none;align=center;verticalAlign=middle;whiteSpace=wrap;rounded=0;" vertex="1" parent="1">
          <mxGeometry x="595" y="-480" width="140" height="30" as="geometry" />
        </mxCell>
        <mxCell id="rBS2Hn_itAMRtuBUA19r-71" style="edgeStyle=orthogonalEdgeStyle;rounded=0;orthogonalLoop=1;jettySize=auto;html=1;" edge="1" parent="1" source="rBS2Hn_itAMRtuBUA19r-21">
          <mxGeometry relative="1" as="geometry">
            <mxPoint x="450" y="-180" as="targetPoint" />
          </mxGeometry>
        </mxCell>
        <mxCell id="rBS2Hn_itAMRtuBUA19r-75" value="1:N" style="edgeLabel;html=1;align=center;verticalAlign=middle;resizable=0;points=[];" vertex="1" connectable="0" parent="rBS2Hn_itAMRtuBUA19r-71">
          <mxGeometry x="0.064" y="-4" relative="1" as="geometry">
            <mxPoint as="offset" />
          </mxGeometry>
        </mxCell>
        <mxCell id="rBS2Hn_itAMRtuBUA19r-21" value="" style="shape=internalStorage;whiteSpace=wrap;html=1;backgroundOutline=1;dx=85;dy=60;" vertex="1" parent="1">
          <mxGeometry x="40" y="-280" width="310" height="200" as="geometry" />
        </mxCell>
        <mxCell id="rBS2Hn_itAMRtuBUA19r-22" value="Id" style="text;html=1;strokeColor=none;fillColor=none;align=center;verticalAlign=middle;whiteSpace=wrap;rounded=0;" vertex="1" parent="1">
          <mxGeometry x="50" y="-260" width="60" height="30" as="geometry" />
        </mxCell>
        <mxCell id="rBS2Hn_itAMRtuBUA19r-23" value="Club" style="text;html=1;strokeColor=none;fillColor=none;align=center;verticalAlign=middle;whiteSpace=wrap;rounded=0;" vertex="1" parent="1">
          <mxGeometry x="180" y="-260" width="60" height="30" as="geometry" />
        </mxCell>
        <mxCell id="rBS2Hn_itAMRtuBUA19r-24" value="01BC" style="text;html=1;strokeColor=none;fillColor=none;align=center;verticalAlign=middle;whiteSpace=wrap;rounded=0;" vertex="1" parent="1">
          <mxGeometry x="50" y="-200" width="60" height="30" as="geometry" />
        </mxCell>
        <mxCell id="rBS2Hn_itAMRtuBUA19r-25" value="FC Barcelona Masculino" style="text;html=1;strokeColor=none;fillColor=none;align=center;verticalAlign=middle;whiteSpace=wrap;rounded=0;" vertex="1" parent="1">
          <mxGeometry x="180" y="-200" width="140" height="30" as="geometry" />
        </mxCell>
        <mxCell id="rBS2Hn_itAMRtuBUA19r-26" value="" style="endArrow=none;html=1;rounded=0;entryX=0.79;entryY=-0.01;entryDx=0;entryDy=0;entryPerimeter=0;exitX=0.79;exitY=1;exitDx=0;exitDy=0;exitPerimeter=0;" edge="1" parent="1">
          <mxGeometry width="50" height="50" relative="1" as="geometry">
            <mxPoint x="710" y="-73.95" as="sourcePoint" />
            <mxPoint x="710" y="-286.0499999999999" as="targetPoint" />
          </mxGeometry>
        </mxCell>
        <mxCell id="rBS2Hn_itAMRtuBUA19r-28" value="Idclub" style="text;html=1;strokeColor=none;fillColor=none;align=center;verticalAlign=middle;whiteSpace=wrap;rounded=0;" vertex="1" parent="1">
          <mxGeometry x="715" y="-260" width="60" height="30" as="geometry" />
        </mxCell>
        <mxCell id="rBS2Hn_itAMRtuBUA19r-29" value="01BC" style="text;html=1;strokeColor=none;fillColor=none;align=center;verticalAlign=middle;whiteSpace=wrap;rounded=0;" vertex="1" parent="1">
          <mxGeometry x="715" y="-210" width="60" height="30" as="geometry" />
        </mxCell>
        <mxCell id="rBS2Hn_itAMRtuBUA19r-30" value="01BC" style="text;html=1;strokeColor=none;fillColor=none;align=center;verticalAlign=middle;whiteSpace=wrap;rounded=0;" vertex="1" parent="1">
          <mxGeometry x="715" y="-180" width="60" height="30" as="geometry" />
        </mxCell>
        <mxCell id="rBS2Hn_itAMRtuBUA19r-31" value="01BC" style="text;html=1;strokeColor=none;fillColor=none;align=center;verticalAlign=middle;whiteSpace=wrap;rounded=0;" vertex="1" parent="1">
          <mxGeometry x="715" y="-150" width="60" height="30" as="geometry" />
        </mxCell>
        <mxCell id="rBS2Hn_itAMRtuBUA19r-32" value="Jugador" style="shape=table;startSize=30;container=1;collapsible=1;childLayout=tableLayout;fixedRows=1;rowLines=0;fontStyle=1;align=center;resizeLast=1;html=1;" vertex="1" parent="1">
          <mxGeometry x="460" y="50" width="330" height="190" as="geometry" />
        </mxCell>
        <mxCell id="rBS2Hn_itAMRtuBUA19r-33" value="" style="shape=tableRow;horizontal=0;startSize=0;swimlaneHead=0;swimlaneBody=0;fillColor=none;collapsible=0;dropTarget=0;points=[[0,0.5],[1,0.5]];portConstraint=eastwest;top=0;left=0;right=0;bottom=1;" vertex="1" parent="rBS2Hn_itAMRtuBUA19r-32">
          <mxGeometry y="30" width="330" height="30" as="geometry" />
        </mxCell>
        <mxCell id="rBS2Hn_itAMRtuBUA19r-34" value="PK" style="shape=partialRectangle;connectable=0;fillColor=none;top=0;left=0;bottom=0;right=0;fontStyle=1;overflow=hidden;whiteSpace=wrap;html=1;" vertex="1" parent="rBS2Hn_itAMRtuBUA19r-33">
          <mxGeometry width="30" height="30" as="geometry">
            <mxRectangle width="30" height="30" as="alternateBounds" />
          </mxGeometry>
        </mxCell>
        <mxCell id="rBS2Hn_itAMRtuBUA19r-35" value="Idjugador" style="shape=partialRectangle;connectable=0;fillColor=none;top=0;left=0;bottom=0;right=0;align=left;spacingLeft=6;fontStyle=5;overflow=hidden;whiteSpace=wrap;html=1;" vertex="1" parent="rBS2Hn_itAMRtuBUA19r-33">
          <mxGeometry x="30" width="300" height="30" as="geometry">
            <mxRectangle width="300" height="30" as="alternateBounds" />
          </mxGeometry>
        </mxCell>
        <mxCell id="rBS2Hn_itAMRtuBUA19r-36" value="" style="shape=tableRow;horizontal=0;startSize=0;swimlaneHead=0;swimlaneBody=0;fillColor=none;collapsible=0;dropTarget=0;points=[[0,0.5],[1,0.5]];portConstraint=eastwest;top=0;left=0;right=0;bottom=0;" vertex="1" parent="rBS2Hn_itAMRtuBUA19r-32">
          <mxGeometry y="60" width="330" height="30" as="geometry" />
        </mxCell>
        <mxCell id="rBS2Hn_itAMRtuBUA19r-37" value="" style="shape=partialRectangle;connectable=0;fillColor=none;top=0;left=0;bottom=0;right=0;editable=1;overflow=hidden;whiteSpace=wrap;html=1;" vertex="1" parent="rBS2Hn_itAMRtuBUA19r-36">
          <mxGeometry width="30" height="30" as="geometry">
            <mxRectangle width="30" height="30" as="alternateBounds" />
          </mxGeometry>
        </mxCell>
        <mxCell id="rBS2Hn_itAMRtuBUA19r-38" value="01" style="shape=partialRectangle;connectable=0;fillColor=none;top=0;left=0;bottom=0;right=0;align=left;spacingLeft=6;overflow=hidden;whiteSpace=wrap;html=1;" vertex="1" parent="rBS2Hn_itAMRtuBUA19r-36">
          <mxGeometry x="30" width="300" height="30" as="geometry">
            <mxRectangle width="300" height="30" as="alternateBounds" />
          </mxGeometry>
        </mxCell>
        <mxCell id="rBS2Hn_itAMRtuBUA19r-39" value="" style="shape=tableRow;horizontal=0;startSize=0;swimlaneHead=0;swimlaneBody=0;fillColor=none;collapsible=0;dropTarget=0;points=[[0,0.5],[1,0.5]];portConstraint=eastwest;top=0;left=0;right=0;bottom=0;" vertex="1" parent="rBS2Hn_itAMRtuBUA19r-32">
          <mxGeometry y="90" width="330" height="30" as="geometry" />
        </mxCell>
        <mxCell id="rBS2Hn_itAMRtuBUA19r-40" value="" style="shape=partialRectangle;connectable=0;fillColor=none;top=0;left=0;bottom=0;right=0;editable=1;overflow=hidden;whiteSpace=wrap;html=1;" vertex="1" parent="rBS2Hn_itAMRtuBUA19r-39">
          <mxGeometry width="30" height="30" as="geometry">
            <mxRectangle width="30" height="30" as="alternateBounds" />
          </mxGeometry>
        </mxCell>
        <mxCell id="rBS2Hn_itAMRtuBUA19r-41" value="06" style="shape=partialRectangle;connectable=0;fillColor=none;top=0;left=0;bottom=0;right=0;align=left;spacingLeft=6;overflow=hidden;whiteSpace=wrap;html=1;" vertex="1" parent="rBS2Hn_itAMRtuBUA19r-39">
          <mxGeometry x="30" width="300" height="30" as="geometry">
            <mxRectangle width="300" height="30" as="alternateBounds" />
          </mxGeometry>
        </mxCell>
        <mxCell id="rBS2Hn_itAMRtuBUA19r-42" value="" style="shape=tableRow;horizontal=0;startSize=0;swimlaneHead=0;swimlaneBody=0;fillColor=none;collapsible=0;dropTarget=0;points=[[0,0.5],[1,0.5]];portConstraint=eastwest;top=0;left=0;right=0;bottom=0;" vertex="1" parent="rBS2Hn_itAMRtuBUA19r-32">
          <mxGeometry y="120" width="330" height="30" as="geometry" />
        </mxCell>
        <mxCell id="rBS2Hn_itAMRtuBUA19r-43" value="" style="shape=partialRectangle;connectable=0;fillColor=none;top=0;left=0;bottom=0;right=0;editable=1;overflow=hidden;whiteSpace=wrap;html=1;" vertex="1" parent="rBS2Hn_itAMRtuBUA19r-42">
          <mxGeometry width="30" height="30" as="geometry">
            <mxRectangle width="30" height="30" as="alternateBounds" />
          </mxGeometry>
        </mxCell>
        <mxCell id="rBS2Hn_itAMRtuBUA19r-44" value="14" style="shape=partialRectangle;connectable=0;fillColor=none;top=0;left=0;bottom=0;right=0;align=left;spacingLeft=6;overflow=hidden;whiteSpace=wrap;html=1;" vertex="1" parent="rBS2Hn_itAMRtuBUA19r-42">
          <mxGeometry x="30" width="300" height="30" as="geometry">
            <mxRectangle width="300" height="30" as="alternateBounds" />
          </mxGeometry>
        </mxCell>
        <mxCell id="rBS2Hn_itAMRtuBUA19r-51" value="" style="endArrow=none;html=1;rounded=0;" edge="1" parent="1">
          <mxGeometry width="50" height="50" relative="1" as="geometry">
            <mxPoint x="570" y="240" as="sourcePoint" />
            <mxPoint x="570" y="80" as="targetPoint" />
          </mxGeometry>
        </mxCell>
        <mxCell id="rBS2Hn_itAMRtuBUA19r-52" value="Demarcación" style="shape=table;startSize=30;container=1;collapsible=1;childLayout=tableLayout;fixedRows=1;rowLines=0;fontStyle=1;align=center;resizeLast=1;html=1;" vertex="1" parent="1">
          <mxGeometry x="40" y="50" width="310" height="180" as="geometry" />
        </mxCell>
        <mxCell id="rBS2Hn_itAMRtuBUA19r-53" value="" style="shape=tableRow;horizontal=0;startSize=0;swimlaneHead=0;swimlaneBody=0;fillColor=none;collapsible=0;dropTarget=0;points=[[0,0.5],[1,0.5]];portConstraint=eastwest;top=0;left=0;right=0;bottom=1;" vertex="1" parent="rBS2Hn_itAMRtuBUA19r-52">
          <mxGeometry y="30" width="310" height="30" as="geometry" />
        </mxCell>
        <mxCell id="rBS2Hn_itAMRtuBUA19r-54" value="PK" style="shape=partialRectangle;connectable=0;fillColor=none;top=0;left=0;bottom=0;right=0;fontStyle=1;overflow=hidden;whiteSpace=wrap;html=1;" vertex="1" parent="rBS2Hn_itAMRtuBUA19r-53">
          <mxGeometry width="30" height="30" as="geometry">
            <mxRectangle width="30" height="30" as="alternateBounds" />
          </mxGeometry>
        </mxCell>
        <mxCell id="rBS2Hn_itAMRtuBUA19r-55" value="Posicion" style="shape=partialRectangle;connectable=0;fillColor=none;top=0;left=0;bottom=0;right=0;align=left;spacingLeft=6;fontStyle=5;overflow=hidden;whiteSpace=wrap;html=1;" vertex="1" parent="rBS2Hn_itAMRtuBUA19r-53">
          <mxGeometry x="30" width="280" height="30" as="geometry">
            <mxRectangle width="280" height="30" as="alternateBounds" />
          </mxGeometry>
        </mxCell>
        <mxCell id="rBS2Hn_itAMRtuBUA19r-56" value="" style="shape=tableRow;horizontal=0;startSize=0;swimlaneHead=0;swimlaneBody=0;fillColor=none;collapsible=0;dropTarget=0;points=[[0,0.5],[1,0.5]];portConstraint=eastwest;top=0;left=0;right=0;bottom=0;" vertex="1" parent="rBS2Hn_itAMRtuBUA19r-52">
          <mxGeometry y="60" width="310" height="30" as="geometry" />
        </mxCell>
        <mxCell id="rBS2Hn_itAMRtuBUA19r-57" value="" style="shape=partialRectangle;connectable=0;fillColor=none;top=0;left=0;bottom=0;right=0;editable=1;overflow=hidden;whiteSpace=wrap;html=1;" vertex="1" parent="rBS2Hn_itAMRtuBUA19r-56">
          <mxGeometry width="30" height="30" as="geometry">
            <mxRectangle width="30" height="30" as="alternateBounds" />
          </mxGeometry>
        </mxCell>
        <mxCell id="rBS2Hn_itAMRtuBUA19r-58" value="DL" style="shape=partialRectangle;connectable=0;fillColor=none;top=0;left=0;bottom=0;right=0;align=left;spacingLeft=6;overflow=hidden;whiteSpace=wrap;html=1;" vertex="1" parent="rBS2Hn_itAMRtuBUA19r-56">
          <mxGeometry x="30" width="280" height="30" as="geometry">
            <mxRectangle width="280" height="30" as="alternateBounds" />
          </mxGeometry>
        </mxCell>
        <mxCell id="rBS2Hn_itAMRtuBUA19r-59" value="" style="shape=tableRow;horizontal=0;startSize=0;swimlaneHead=0;swimlaneBody=0;fillColor=none;collapsible=0;dropTarget=0;points=[[0,0.5],[1,0.5]];portConstraint=eastwest;top=0;left=0;right=0;bottom=0;" vertex="1" parent="rBS2Hn_itAMRtuBUA19r-52">
          <mxGeometry y="90" width="310" height="30" as="geometry" />
        </mxCell>
        <mxCell id="rBS2Hn_itAMRtuBUA19r-60" value="" style="shape=partialRectangle;connectable=0;fillColor=none;top=0;left=0;bottom=0;right=0;editable=1;overflow=hidden;whiteSpace=wrap;html=1;" vertex="1" parent="rBS2Hn_itAMRtuBUA19r-59">
          <mxGeometry width="30" height="30" as="geometry">
            <mxRectangle width="30" height="30" as="alternateBounds" />
          </mxGeometry>
        </mxCell>
        <mxCell id="rBS2Hn_itAMRtuBUA19r-61" value="MC" style="shape=partialRectangle;connectable=0;fillColor=none;top=0;left=0;bottom=0;right=0;align=left;spacingLeft=6;overflow=hidden;whiteSpace=wrap;html=1;" vertex="1" parent="rBS2Hn_itAMRtuBUA19r-59">
          <mxGeometry x="30" width="280" height="30" as="geometry">
            <mxRectangle width="280" height="30" as="alternateBounds" />
          </mxGeometry>
        </mxCell>
        <mxCell id="rBS2Hn_itAMRtuBUA19r-62" value="" style="shape=tableRow;horizontal=0;startSize=0;swimlaneHead=0;swimlaneBody=0;fillColor=none;collapsible=0;dropTarget=0;points=[[0,0.5],[1,0.5]];portConstraint=eastwest;top=0;left=0;right=0;bottom=0;" vertex="1" parent="rBS2Hn_itAMRtuBUA19r-52">
          <mxGeometry y="120" width="310" height="30" as="geometry" />
        </mxCell>
        <mxCell id="rBS2Hn_itAMRtuBUA19r-63" value="" style="shape=partialRectangle;connectable=0;fillColor=none;top=0;left=0;bottom=0;right=0;editable=1;overflow=hidden;whiteSpace=wrap;html=1;" vertex="1" parent="rBS2Hn_itAMRtuBUA19r-62">
          <mxGeometry width="30" height="30" as="geometry">
            <mxRectangle width="30" height="30" as="alternateBounds" />
          </mxGeometry>
        </mxCell>
        <mxCell id="rBS2Hn_itAMRtuBUA19r-64" value="DF" style="shape=partialRectangle;connectable=0;fillColor=none;top=0;left=0;bottom=0;right=0;align=left;spacingLeft=6;overflow=hidden;whiteSpace=wrap;html=1;" vertex="1" parent="rBS2Hn_itAMRtuBUA19r-62">
          <mxGeometry x="30" width="280" height="30" as="geometry">
            <mxRectangle width="280" height="30" as="alternateBounds" />
          </mxGeometry>
        </mxCell>
        <mxCell id="rBS2Hn_itAMRtuBUA19r-65" value="POR" style="shape=partialRectangle;connectable=0;fillColor=none;top=0;left=0;bottom=0;right=0;align=left;spacingLeft=6;overflow=hidden;whiteSpace=wrap;html=1;" vertex="1" parent="1">
          <mxGeometry x="70" y="200" width="280" height="30" as="geometry">
            <mxRectangle width="280" height="30" as="alternateBounds" />
          </mxGeometry>
        </mxCell>
        <mxCell id="rBS2Hn_itAMRtuBUA19r-66" value="Ter Stegen" style="text;html=1;strokeColor=none;fillColor=none;align=center;verticalAlign=middle;whiteSpace=wrap;rounded=0;" vertex="1" parent="1">
          <mxGeometry x="580" y="110" width="70" height="30" as="geometry" />
        </mxCell>
        <mxCell id="rBS2Hn_itAMRtuBUA19r-67" value="Gavi" style="text;html=1;strokeColor=none;fillColor=none;align=center;verticalAlign=middle;whiteSpace=wrap;rounded=0;" vertex="1" parent="1">
          <mxGeometry x="570" y="140" width="70" height="30" as="geometry" />
        </mxCell>
        <mxCell id="rBS2Hn_itAMRtuBUA19r-68" value="Felix" style="text;html=1;strokeColor=none;fillColor=none;align=center;verticalAlign=middle;whiteSpace=wrap;rounded=0;" vertex="1" parent="1">
          <mxGeometry x="570" y="170" width="70" height="30" as="geometry" />
        </mxCell>
        <mxCell id="rBS2Hn_itAMRtuBUA19r-69" value="04" style="shape=partialRectangle;connectable=0;fillColor=none;top=0;left=0;bottom=0;right=0;align=left;spacingLeft=6;overflow=hidden;whiteSpace=wrap;html=1;" vertex="1" parent="1">
          <mxGeometry x="490" y="200" width="280" height="30" as="geometry">
            <mxRectangle width="280" height="30" as="alternateBounds" />
          </mxGeometry>
        </mxCell>
        <mxCell id="rBS2Hn_itAMRtuBUA19r-70" value="Araujo" style="text;html=1;strokeColor=none;fillColor=none;align=center;verticalAlign=middle;whiteSpace=wrap;rounded=0;" vertex="1" parent="1">
          <mxGeometry x="570" y="200" width="70" height="30" as="geometry" />
        </mxCell>
      </root>
    </mxGraphModel>
  </diagram>
</mxfile>
